PathFileType	4	(X/Y/Z)	38_2_43_p0_0-205_filt_butterworth.trc
DataRate	CameraRate	NumFrames	NumMarkers	Units	OrigDataRate	OrigDataStartFrame	OrigNumFrames
59.0	59.0	6	27	m	59.0	51	205
Frame#	Time	RHip			RKnee			RAnkle			RBigToe			RSmallToe			RHeel			LHip			LKnee			LAnkle			LBigToe			LSmallToe			LHeel			Neck			Head			Nose			RShoulder			RElbow			RWrist			RThumb			RIndex			RPinky			LShoulder			LElbow			LWrist			LThumb			LIndex			LPinky			
		X1	Y1	Z1	X2	Y2	Z2	X3	Y3	Z3	X4	Y4	Z4	X5	Y5	Z5	X6	Y6	Z6	X7	Y7	Z7	X8	Y8	Z8	X9	Y9	Z9	X10	Y10	Z10	X11	Y11	Z11	X12	Y12	Z12	X13	Y13	Z13	X14	Y14	Z14	X15	Y15	Z15	X16	Y16	Z16	X17	Y17	Z17	X18	Y18	Z18	X19	Y19	Z19	X20	Y20	Z20	X21	Y21	Z21	X22	Y22	Z22	X23	Y23	Z23	X24	Y24	Z24	X25	Y25	Z25	X26	Y26	Z26	X27	Y27	Z27	
51	0.864406779661017	0.40137184195973385	0.7057680494586958	0.5571352850988465	0.39819589965721697	0.9105733986581475	0.9701323053505035	0.3615771648020887	1.0573906814471727	1.3646722553566313	0.3169445531465158	0.8750526230413267	1.4295530232006621	0.379645766700042	0.887367334124792	1.4295244669412663	0.3525447950021742	1.1608446802233412	1.4109681516106125	0.20137831981540733	0.7394893056983641	0.5447606268720889	0.1920379335869777	0.8919671463872931	0.9510721661272649	0.19855133460373622	1.072119926680294	1.3411214076965634	0.172247614245275	0.8965478185983276	1.4133847282774916	0.12244581378211505	0.9347513101799171	1.4042624510676556	0.21391561076905677	1.1740155440110387	1.42037159255243	0.29467092188383165	0.5304664905336559	-0.04657783797143422	0.3007264295108566	0.35634306229106427	-0.2691461926869879	0.2739960421302954	0.337198312478076	-0.11231883370247289	0.47957488331668674	0.5367342406158724	0.025847314912770765	0.5672118741365498	0.7318713725322337	0.25584246192008325	0.4486648929279217	0.5424257928355942	0.3913788811262758	0.3663152023769926	0.4583307320503396	0.46194227793534753	0.3730509788258431	0.45497420895918983	0.4747907769026595	0.39226221761863017	0.5041346925481452	0.5010810944655136	0.11425742168518477	0.5863016422474394	-0.004078966483511566	0.05197149379500558	0.7581235995097036	0.19447790669214207	0.12148931457022263	0.6023388110014549	0.3544865393099602	0.19918487995647366	0.5131321430488416	0.40493632688031994	0.17943765013919355	0.4718459791902714	0.43054375693333513	0.14329027051093685	0.5786157350660517	0.45694771016556357
52	0.8813559322033898	0.4011831266393794	0.7046939981014412	0.5536991370478175	0.398455182173026	0.9112678630169487	0.9687523493697288	0.36157061551090275	1.0573448680246935	1.364666616952374	0.31652426432002984	0.8749794911286513	1.4296267109592573	0.3797407881571085	0.8878171366623788	1.4295928324974194	0.35231659303115614	1.1604988454920353	1.4103061264119496	0.20147193428371116	0.7395607101453139	0.544988895418122	0.19234815937649158	0.8921212393175171	0.9510346649466455	0.19804497671282761	1.0720001688430474	1.3410880656258477	0.17084599145875962	0.8927215646385697	1.4132215590538006	0.12235845083459036	0.9347590081345447	1.4042449850828758	0.2139009358489412	1.1740616601164644	1.4197707067524403	0.29500783927318086	0.5295600232763237	-0.04666535103077464	0.30310587917588466	0.3565780855208072	-0.26841276489814464	0.2740216366504681	0.337106838717694	-0.11239253583360191	0.4783517013566543	0.5359148333922784	0.02411140765279027	0.566937254359627	0.7323232584341388	0.2528472011897147	0.448745136377268	0.5422417291994686	0.38744888481339923	0.3658831561104718	0.455000104787153	0.45726625571874674	0.37278877457303883	0.4547697854452553	0.4700468239414775	0.39193590385972865	0.5042308242407536	0.4940922550819262	0.1153484586054133	0.5813350236464335	-0.004078239766663779	0.05346034003657185	0.7577131797269823	0.1915497728329502	0.1210204645774853	0.5996232426989907	0.35121362089728175	0.1981389269908746	0.513456838852194	0.3985328178532708	0.17828623595106402	0.4711048747398637	0.42659339333883656	0.14286849219794834	0.5767638615566384	0.45213511541202045
53	0.8983050847457628	0.4010157789374749	0.7039530768893271	0.5509306976020358	0.39865038798945257	0.9118106059225716	0.9678047598613758	0.3615622982414596	1.0572776525488747	1.36466306672121	0.3163906603844399	0.8748980518513196	1.4295505699223907	0.37978471928088087	0.8881508211108543	1.4295148057871225	0.35227983497673104	1.1605686554430106	1.4096660220439121	0.20152751453393894	0.7397897013504056	0.5450270313281348	0.19272328488102042	0.8928969155700293	0.951168950717666	0.19666683659460013	1.0715159286432578	1.34093577291257	0.16907399223856037	0.8874198049943605	1.4129784744093847	0.12222739051534699	0.9347060788713287	1.4041678030692586	0.21377826132939118	1.174098381884656	1.418395556240366	0.2950198637997965	0.5295642112866273	-0.04675732386306635	0.3047087097547463	0.3567621298889321	-0.2681114950474639	0.2740428071494988	0.3370253127892366	-0.11243035736452989	0.47682887927379763	0.535705865494665	0.022660857206290033	0.5669642610120136	0.7313397552667417	0.25038518213588	0.4488224265792082	0.5423078040603984	0.385317826445422	0.365143364110865	0.45396257130521844	0.45173252706798867	0.3721534285400834	0.4542938922215185	0.46630225933839337	0.3912217337230296	0.5037870995508418	0.4880191105170521	0.11585237640427376	0.5767929812145716	-0.003965249645941289	0.05411356167109547	0.7569680530905956	0.18842424424311663	0.12086404860358695	0.5965410969817623	0.3478568174227742	0.19863624060117868	0.5154680333911602	0.3949137482349473	0.17772903559996545	0.47094465689051834	0.4236032304501739	0.14286206047481978	0.5746863708266605	0.4478007807623555
54	0.9152542372881356	0.40101984920242634	0.7039350698222846	0.5495617033324051	0.3987235031588947	0.9121219159512419	0.9674809345926503	0.3615590536171078	1.0572313065594559	1.3646669851049853	0.3164768844540242	0.8749491127234978	1.4295204425087256	0.37980230832128503	0.8881716653827992	1.4294459899221204	0.3523504493762393	1.161226991514935	1.4100261258749867	0.20154763027386144	0.7399694430767789	0.5449362466595802	0.19302021429867414	0.8942013893549411	0.9515142982404275	0.19482454561267137	1.0708258204789107	1.3407363300171904	0.16788618446699652	0.8835797585345478	1.4128067829552151	0.1221453430804513	0.9345701640241114	1.4040545000897113	0.2136061553827518	1.1741382634502444	1.4166867992398064	0.2945030447741877	0.5286925278712429	-0.04653580010915472	0.3051623116425315	0.35692398715255924	-0.26811042377807226	0.27405460118602504	0.33694321524834625	-0.11247300326110529	0.47570132681205063	0.5354566689031564	0.022192106606945657	0.5670453073835973	0.7304675057561659	0.24912036902138004	0.44883275076886	0.5424148286554029	0.3846423277840508	0.36390554806750186	0.4581168409862431	0.44664033470082376	0.3709284122027062	0.45369797606715995	0.46398539290459273	0.3899823337589116	0.503157552457296	0.48384971765309415	0.11514833365026839	0.5725816600604158	-0.003637897014973081	0.054177800289482866	0.7562774115610645	0.18568768943959327	0.12141647915291275	0.5918707648106258	0.3453103056966235	0.2003227506889026	0.5166406765040535	0.3935930183252366	0.17881929543560302	0.470437464994435	0.42248780289873594	0.1432347297152613	0.5729304278238748	0.4449186634856097
55	0.9322033898305084	0.40158620118316646	0.7053274442636126	0.549320945662712	0.3987241607560396	0.912382408685665	0.9674173463477521	0.36156020282190704	1.0572062970271048	1.3646740686061092	0.3166516925983171	0.8751669570994043	1.4296008178841482	0.3798818761973833	0.8879637556881769	1.4297801313054308	0.3525283525167122	1.1624603159429054	1.4118805525165894	0.20150882241157225	0.7398727142462992	0.5444785422284703	0.19319062583920152	0.8954068202437444	0.9518864556237091	0.19349300840614372	1.0703191365801845	1.340515299586711	0.16790692888493008	0.883663821675542	1.4128451018698829	0.12214192282050661	0.9343911377338863	1.403952316274967	0.21349949302481472	1.1742463177246405	1.4154802318094828	0.2932357003248381	0.5259328210214387	-0.04564569415359415	0.30478778634952536	0.35708889938653976	-0.2680932208243543	0.2740580851794382	0.33685843825353873	-0.112549373359689	0.47517674514742225	0.5343322837628739	0.02284278820097576	0.5670352337578676	0.7302135227698806	0.24879265350024896	0.44879132495861596	0.5424874521072637	0.3845463918486679	0.3622461041992189	0.46866419266294407	0.4441041666064524	0.36944903697799236	0.45319427651277694	0.46320872705752225	0.3886085826067833	0.5025594932993238	0.4823304340553918	0.11368537962599799	0.5685936446356875	-0.0030807346114290696	0.05398044791983312	0.7559060084143688	0.18400633326170393	0.12263162874169313	0.5865806309728199	0.3445524474079855	0.20248051998675318	0.5167866460585865	0.3936388282370034	0.18122774792191987	0.4696340167672208	0.42309021258186363	0.14421294484327757	0.5720951888869082	0.4439822965681018
56	0.9491525423728814	0.40300633505326333	0.7086283935055886	0.5495353386073992	0.39866965362577156	0.9127006282870976	0.9673302001061126	0.3615603391816571	1.0571717649805716	1.3646768039933612	0.31669551813402486	0.8751522359237078	1.429636314426674	0.3800689806388	0.887871244502002	1.4308225190575685	0.352775104741804	1.1635061146060985	1.413814772631884	0.20138939626965466	0.7393627873594147	0.5434224282138266	0.1932612866970399	0.8961038183007113	0.9519911550186846	0.1930714139172338	1.0701295354777653	1.3399812132345457	0.1691444928229589	0.8877534311723096	1.413099494288802	0.12216513787677458	0.9343174100518599	1.4039244355939624	0.2135085857856565	1.1744362723422583	1.415088307742294	0.29156279133203	0.522152512623684	-0.04410020585233828	0.30400299493466865	0.35705305234264606	-0.26763893233860925	0.27406955906194386	0.33681522337305814	-0.11255416062344399	0.4749295391723173	0.5317635512201215	0.02403487481478032	0.5669435402974956	0.7305301457034694	0.248885204802774	0.4487259365276308	0.5425397372956793	0.3845899911632393	0.3605357159449895	0.4821892126434455	0.4449825511309685	0.3683787991041546	0.4530262566799085	0.46379938307789415	0.387786527745697	0.5026176556385016	0.4833773245208878	0.11240939288904717	0.5657541485143467	-0.0021878567743143927	0.05367248682508982	0.7559273520867025	0.18393273622044162	0.12390044083364403	0.5830094112426056	0.3457388151084438	0.20461157877258968	0.5169946101292374	0.3945991410417319	0.18351561952620007	0.46921929779556437	0.424552543832035	0.14563456246311487	0.5724382900398703	0.44489196493379907
